<?xml version="1.0" encoding="UTF-8" standalone="no"?>
<!-- Created with Inkscape (http://www.inkscape.org/) -->

<svg
   width="285.75mm"
   height="285.75mm"
   viewBox="0 0 285.75 285.75"
   version="1.1"
   id="svg1"
   xml:space="preserve"
   sodipodi:docname="VectorStagOnWhite.svg"
   inkscape:version="1.4.2 (f4327f4, 2025-05-13)"
   xmlns:inkscape="http://www.inkscape.org/namespaces/inkscape"
   xmlns:sodipodi="http://sodipodi.sourceforge.net/DTD/sodipodi-0.dtd"
   xmlns="http://www.w3.org/2000/svg"
   xmlns:svg="http://www.w3.org/2000/svg"><sodipodi:namedview
     id="namedview1"
     pagecolor="#505050"
     bordercolor="#eeeeee"
     borderopacity="1"
     inkscape:showpageshadow="0"
     inkscape:pageopacity="0"
     inkscape:pagecheckerboard="0"
     inkscape:deskcolor="#505050"
     inkscape:document-units="mm"
     inkscape:zoom="0.43717016"
     inkscape:cx="537.54813"
     inkscape:cy="425.46363"
     inkscape:window-width="1440"
     inkscape:window-height="938"
     inkscape:window-x="-6"
     inkscape:window-y="-6"
     inkscape:window-maximized="1"
     inkscape:current-layer="layer1" /><defs
     id="defs1" /><g
     inkscape:label="Layer 1"
     inkscape:groupmode="layer"
     id="layer1"
     transform="translate(37.835415,-5.5562501)"><path
       style="fill:#ffffff"
       d="m 104.51042,264.57986 c -2.77172,-0.28757 -5.362034,-0.72842 -6.699265,-1.14017 l -1.011882,-0.31156 0.183826,-3.43959 c 0.101104,-1.89177 0.22573,-3.51259 0.276946,-3.60183 0.05122,-0.0892 1.137955,0.0562 2.414976,0.32308 3.704519,0.77435 8.320899,1.10688 10.891499,0.78456 3.91815,-0.4913 5.72189,-1.71694 6.54327,-4.44619 0.34845,-1.15782 0.51943,-4.83358 0.22484,-4.83358 -0.0772,0 -0.48974,0.3979 -0.91673,0.88422 -1.0965,1.24884 -3.52485,2.46236 -5.67757,2.83724 -2.09225,0.36435 -6.15033,0.17863 -8.21429,-0.37594 -3.246,-0.87217 -5.828264,-2.87058 -7.37037,-5.70394 -2.060072,-3.78503 -2.391459,-13.26292 -0.629862,-18.01449 1.573843,-4.24515 4.820911,-6.95209 9.387302,-7.82578 4.44878,-0.85119 8.97266,-0.14358 12.17386,1.90421 0.76907,0.49196 1.45553,0.89448 1.52546,0.89448 0.0699,0 0.12898,-0.44648 0.13121,-0.99218 0.002,-0.54571 0.0915,-1.11125 0.19843,-1.25677 0.12009,-0.16345 1.79362,-0.23209 4.37824,-0.17957 l 4.18385,0.085 -0.10318,15.92228 c -0.0894,13.78674 -0.16224,16.14443 -0.5434,17.57864 -1.10366,4.15275 -3.63501,7.35848 -7.19195,9.10796 -1.16417,0.5726 -2.83104,1.21137 -3.70417,1.4195 -2.02281,0.48218 -7.53594,0.68286 -10.45104,0.38041 z m 9.07865,-20.39624 c 1.83559,-0.70244 3.16667,-2.11359 3.59384,-3.81002 0.3734,-1.48292 0.38148,-9.12133 0.0107,-10.10273 -0.40482,-1.07144 -1.50562,-2.1448 -3.02588,-2.95046 -1.18761,-0.62936 -1.60707,-0.70126 -4.10104,-0.70293 -2.59505,-0.002 -2.8531,0.0469 -3.91583,0.73742 -1.25181,0.81341 -2.53977,2.63744 -3.02479,4.28374 -0.47404,1.60905 -0.37951,7.42402 0.14315,8.80568 1.51334,4.00051 5.6862,5.51251 10.31987,3.7393 z M 1.8520851,253.47365 c -2.02958773,-0.27194 -6.5615001,-1.40931 -7.6032124,-1.90818 -0.7311626,-0.35014 -0.7311626,-0.35014 -0.8037058,-4.77864 -0.045622,-2.78506 0.024336,-4.4285 0.1885123,-4.4285 0.1435805,0 0.8906,0.23164 1.6600432,0.51476 4.54040116,1.67062 8.2814328,2.41508 12.1640433,2.42064 3.7988353,0.005 4.8299753,-0.25684 6.3824163,-1.62335 1.345587,-1.18444 1.805567,-2.50463 1.490467,-4.27782 -0.469278,-2.6408 -1.556411,-3.2287 -10.1693112,-5.49944 -4.0010141,-1.05485 -6.15340984,-2.11055 -8.217195,-4.03038 -2.6471939,-2.46253 -3.7850365,-5.73242 -3.4316424,-9.8617 0.6065459,-7.08727 4.35148,-10.59883 12.4255711,-11.65123 2.0067518,-0.26157 7.8340095,-0.18119 10.2696075,0.14166 2.690575,0.35664 6.069195,1.24663 6.3381,1.66956 0.110157,0.17326 0.20211,2.14459 0.204338,4.38075 0.0041,4.06574 0.0041,4.06574 -0.591261,3.92014 -0.327422,-0.0801 -2.143125,-0.64848 -4.034896,-1.26313 -3.32014,-1.07872 -3.563621,-1.11838 -7.011458,-1.14201 -3.4947201,-0.024 -3.6028625,-0.007 -5.0064217,0.76926 -1.990482,1.10136 -2.5276093,1.90906 -2.5162387,3.78381 0.020853,3.43813 1.8913147,4.66604 10.5153704,6.90307 5.292256,1.37279 8.447064,3.46873 9.890668,6.57101 1.312119,2.81972 1.455107,7.22234 0.348984,10.74525 -0.492754,1.56938 -0.82019,2.0643 -2.468466,3.7311 -2.29163,2.31738 -4.185143,3.2946 -8.2405,4.25282 -3.172152,0.74954 -8.7754791,1.06363 -11.7838129,0.66055 z m 38.8937499,0.0396 c -3.9337,-0.62257 -6.432471,-2.47023 -7.447785,-5.50707 -0.577786,-1.72818 -0.609721,-2.2455 -0.695173,-11.26085 l -0.08957,-9.44946 -2.564467,-0.0755 -2.564467,-0.0755 -0.07383,-3.50573 -0.07382,-3.50573 h 2.653513 2.653513 v -3.69912 c 0,-3.62123 0.01254,-3.70187 0.595312,-3.82911 0.327422,-0.0715 2.083594,-0.37348 3.902604,-0.67109 1.819011,-0.29761 3.634714,-0.60803 4.034896,-0.68983 0.727604,-0.14872 0.727604,-0.14872 0.727604,2.7439 0,1.59095 0.07649,3.62447 0.169984,4.51894 l 0.169983,1.62631 h 4.592517 4.592516 v 3.57188 3.57187 l -4.696354,-1.9e-4 -4.696354,-1.9e-4 0.06735,7.87155 c 0.07416,8.66676 0.238416,9.75295 1.566388,10.35801 0.446295,0.20335 1.978375,0.30121 4.292622,0.27421 l 3.598637,-0.042 0.165574,1.81565 c 0.09107,0.99862 0.180362,2.6029 0.198437,3.56507 l 0.03286,1.74941 -1.521354,0.31599 c -1.837176,0.38157 -7.936274,0.59057 -9.591146,0.32866 z m 23.680208,-0.029 c -1.82548,-0.30229 -4.10335,-1.20384 -5.382095,-2.13015 -0.783418,-0.56751 -1.339994,-1.33112 -2.066857,-2.83568 -0.957975,-1.98295 -0.994517,-2.16167 -0.988967,-4.83715 0.0054,-2.58232 0.06352,-2.89001 0.825216,-4.36562 1.057323,-2.04833 2.4225,-3.34294 4.593162,-4.35577 2.775196,-1.2949 4.793845,-1.62078 11.05715,-1.785 l 5.656358,-0.1483 -0.16654,-1.59337 c -0.311173,-2.97714 -1.661032,-3.92372 -6.292304,-4.41242 -2.411789,-0.2545 -6.075285,-0.0376 -11.666893,0.69062 l -1.256771,0.16368 0.01525,-2.21722 c 0.0084,-1.21947 0.09966,-2.69347 0.202838,-3.27556 0.161322,-0.91013 0.316648,-1.10025 1.109231,-1.35769 3.625735,-1.17768 15.053904,-1.67426 18.584942,-0.80756 3.287293,0.80687 5.641019,2.3488 6.921974,4.53458 1.364977,2.32916 1.468026,3.4828 1.472273,16.48223 l 0.0039,11.9724 h -3.820843 c -2.562239,0 -3.88191,-0.0988 -4.006229,-0.29996 -0.101962,-0.16498 -0.344425,-1.13463 -0.538807,-2.15479 -0.194382,-1.02016 -0.418587,-1.91999 -0.498234,-1.99964 -0.07965,-0.0796 -0.766944,0.45248 -1.527328,1.1825 -1.728094,1.65909 -2.244259,1.97486 -4.641888,2.83973 -2.141027,0.77231 -5.381746,1.07558 -7.588546,0.71014 z m 9.968405,-7.85129 c 2.424668,-0.97843 3.293641,-2.26138 3.575404,-5.27872 l 0.158753,-1.70005 -3.411697,0.005 c -3.637262,0.006 -6.505738,0.31755 -7.630038,0.82982 -1.022621,0.46593 -1.734785,1.79775 -1.734785,3.2442 0,1.57887 0.599705,2.73592 1.670768,3.22353 1.198307,0.54553 5.707955,0.34731 7.371595,-0.32402 z m 74.565972,7.84896 c -2.15065,-0.3282 -6.01793,-1.53049 -7.53482,-2.3425 -0.7308,-0.3912 -2.19647,-1.57326 -3.25704,-2.62679 -3.48083,-3.45772 -5.10807,-7.92939 -5.49696,-15.10569 -0.19951,-3.68157 0.18471,-8.87089 0.86525,-11.68609 0.22866,-0.94588 1.00646,-2.88237 1.72845,-4.30331 1.77257,-3.48854 3.48547,-5.21565 6.8182,-6.87472 3.44194,-1.71343 5.80321,-2.16205 11.37484,-2.16113 6.17046,0.001 9.38821,0.72758 12.69449,2.8664 2.20042,1.42345 3.87212,3.38262 5.27089,6.17726 1.39862,2.79437 2.06528,5.59536 2.45311,10.30681 0.66902,8.12744 -0.76986,14.56439 -4.31961,19.32409 -3.01807,4.04679 -8.4382,6.32331 -15.56972,6.53947 -1.96453,0.0596 -4.22672,0.008 -5.02708,-0.1138 z m 9.2998,-8.92458 c 2.90185,-1.35794 4.40436,-3.35737 5.43016,-7.22607 0.64841,-2.44544 0.64829,-10.26275 -2.1e-4,-12.68247 -1.12649,-4.20324 -2.74268,-6.33339 -5.62311,-7.41127 -3.33834,-1.24923 -5.80181,-1.31995 -9.02001,-0.25894 -2.14535,0.7073 -3.80623,2.18207 -4.83497,4.29317 -1.37042,2.81227 -1.70152,4.60643 -1.71859,9.31264 -0.0186,5.12631 0.32878,7.05331 1.80059,9.98831 0.97283,1.93996 1.27834,2.30578 2.74902,3.29161 2.08469,1.39741 3.21037,1.66182 6.69576,1.57273 2.47869,-0.0633 2.98903,-0.16265 4.52136,-0.87971 z m 22.18562,-13.57607 v -22.225 h 4.5892 c 5.22537,0 4.63386,-0.25194 6.52268,2.77813 4.5939,7.36955 7.98146,12.84712 8.99645,14.54696 0.65484,1.0967 1.61592,2.67759 2.13572,3.5131 0.51981,0.83551 1.8295,3.03106 2.91042,4.87901 1.08092,1.84795 2.05461,3.366 2.16375,3.37344 0.10914,0.007 0.19844,-6.53491 0.19844,-14.53856 v -14.55208 h 4.36563 4.36562 l 0.0178,14.35365 c 0.01,7.8945 0.0333,17.86599 0.0522,22.15885 l 0.0345,7.80521 -4.65713,0.0721 -4.65714,0.0721 -0.6009,-0.99819 c -0.3305,-0.549 -0.98115,-1.5935 -1.44589,-2.3211 -0.46474,-0.72761 -1.65248,-2.63261 -2.63941,-4.23333 -0.98694,-1.60073 -2.8632,-4.63683 -4.16948,-6.74688 -1.30627,-2.11005 -3.03268,-4.90802 -3.83646,-6.21771 -0.80378,-1.30969 -1.94942,-3.17098 -2.54586,-4.1362 -0.59645,-0.96523 -1.44164,-2.33444 -1.8782,-3.04271 l -0.79375,-1.28775 -0.0684,14.48593 -0.0684,14.48594 h -4.49566 -4.49565 z M 99.481488,204.05579 c -2.838672,-1.41657 -5.458047,-2.76412 -5.820833,-2.99457 -0.362787,-0.23044 -2.147893,-1.29401 -3.966903,-2.36349 -15.64992,-9.20129 -29.495937,-21.87647 -34.401781,-31.49272 l -0.574279,-1.12568 1.67761,-1.48185 c 7.051224,-6.22843 8.688513,-9.74933 9.609232,-20.66415 0.399328,-4.73389 0.942633,-18.97728 0.739266,-19.38073 -0.05501,-0.10914 -1.075267,-0.20019 -2.267226,-0.20234 -3.860929,-0.007 -6.596549,-0.9718 -9.89624,-3.49033 -2.568709,-1.9606 -5.313804,-5.88537 -6.842134,-9.78249 -0.950922,-2.42476 -2.549941,-8.37985 -2.340916,-8.71806 0.219609,-0.35533 4.779207,-0.093 8.006986,0.46074 3.818277,0.655 8.75407,2.82049 11.853992,5.20073 0.802092,0.61588 1.883407,1.4472 2.402923,1.84738 1.172467,0.90315 1.924247,0.95484 1.924197,0.13229 -6.9e-5,-1.14875 -1.255743,-4.6489 -2.262114,-6.30557 C 65.360011,100.46308 63.211633,98.561858 56.415317,94.041881 43.482147,85.44051 42.114541,84.505932 38.496877,81.796997 30.169601,75.56147 23.597612,69.406823 20.680106,65.111649 c -2.062971,-3.037121 -4.017767,-6.735391 -4.767695,-9.019982 -1.569928,-4.782649 -1.6685,-5.316813 -1.806519,-9.789584 -0.119163,-3.861706 -0.07001,-4.617524 0.425824,-6.547917 1.252641,-4.876806 3.305407,-9.088134 5.611638,-11.512486 1.487099,-1.563266 1.698277,-1.141237 1.039829,2.078045 -0.838873,4.101409 -1.106285,7.905176 -0.782159,11.125705 0.563216,5.596117 3.471587,12.368476 6.546993,15.245159 1.153334,1.078809 1.891568,1.526954 1.891568,1.148278 0,-0.05769 0.288443,-1.45667 0.640984,-3.108854 2.040766,-9.564056 5.413982,-16.409394 10.955859,-22.232959 2.463425,-2.588638 4.442157,-4.069574 7.009283,-5.245936 2.102524,-0.963463 3.354291,-1.235099 3.354291,-0.727888 0,0.204339 -0.929297,1.672315 -2.065103,3.262168 -7.527792,10.537082 -10.610414,18.498445 -10.697961,27.629185 -0.04139,4.316596 0.231278,5.597662 1.963783,9.226439 1.201,2.515524 1.559114,2.994962 4.298441,5.754687 1.643559,1.655798 3.123769,3.010541 3.289356,3.010541 0.210094,0 0.301067,-1.074083 0.301067,-3.554577 0,-5.366604 1.081546,-9.475656 3.592967,-13.65054 2.10376,-3.497206 6.001994,-7.68395 6.598783,-7.087161 0.135097,0.135097 -0.473885,3.263362 -0.943259,4.845403 -1.027909,3.4646 -1.382266,12.28694 -0.638203,15.889178 0.85016,4.115891 3.137533,8.236149 6.050087,10.898059 1.542156,1.409444 13.603625,9.561183 14.489793,9.792921 0.340122,0.08894 0.806092,-0.139439 1.36016,-0.666649 3.413276,-3.247819 12.195181,-8.280477 18.409334,-10.549862 2.771966,-1.012311 3.269463,-1.322429 5.955343,-3.712324 1.03297,-0.919133 2.00512,-1.672081 2.16034,-1.673216 0.15523,-0.0011 1.28632,0.838229 2.51355,1.865255 2.61304,2.18677 2.96688,2.391475 5.95968,3.447804 5.56015,1.962489 14.72327,7.320166 18.43478,10.778824 0.73191,0.682037 0.73191,0.682037 2.18058,-0.07588 0.79678,-0.416856 1.64673,-0.976765 1.8888,-1.244243 0.24206,-0.267477 0.52896,-0.486322 0.63754,-0.486322 0.26853,0 5.97118,-3.657658 8.00153,-5.132157 5.87073,-4.263489 8.75196,-9.240269 9.46237,-16.344489 0.39562,-3.956243 0.0466,-8.451052 -0.93132,-11.993146 -0.8708,-3.154122 -1.23968,-4.878205 -1.15744,-5.409621 0.0857,-0.553686 0.11856,-0.547036 1.18474,0.23965 2.26828,1.673654 5.82388,6.774395 7.13018,10.228706 1.25831,3.32739 1.95463,7.061051 1.95727,10.494845 0.003,3.650437 -0.15535,3.603533 2.85012,0.845257 3.30672,-3.034756 4.91945,-5.47752 6.31863,-9.570691 0.63398,-1.854659 0.70428,-2.431602 0.68827,-5.648495 -0.0164,-3.289986 -0.50386,-7.370939 -1.12068,-9.381734 -0.13392,-0.436563 -0.54901,-1.831294 -0.92244,-3.099402 -1.28663,-4.369235 -5.20619,-11.398432 -9.46881,-16.981022 -0.92189,-1.207361 -1.28124,-2.276868 -0.76502,-2.276868 0.69691,0 3.42172,1.1202 4.9875,2.050414 5.95955,3.540502 11.19994,10.832744 13.73742,19.116253 1.54446,5.041813 1.62525,5.340311 2.07695,7.672916 0.60867,3.143243 0.52683,2.998278 1.42916,2.531666 2.87524,-1.486845 6.57821,-8.941006 7.46944,-15.036141 0.38657,-2.643807 0.16295,-9.501587 -0.37738,-11.572608 -0.60081,-2.30289 -0.74366,-3.385704 -0.46904,-3.555429 0.38401,-0.237332 2.32215,1.963832 3.5212,3.999058 1.41025,2.39372 1.97538,3.691812 2.91693,6.700121 0.70018,2.23712 0.80148,2.995742 0.9212,6.898259 0.1261,4.110345 0.0912,4.552495 -0.55789,7.065979 -1.93242,7.483073 -4.75057,12.444037 -10.43092,18.362149 -5.3895,5.615091 -14.85081,12.880631 -26.6387,20.45642 -2.34484,1.50697 -7.94525,5.233466 -10.48942,6.979631 -1.47866,1.014858 -3.55549,3.229732 -4.89987,5.225542 -1.9646,2.91658 -3.21696,7.50785 -2.04791,7.50785 0.49855,0 1.72607,-0.80804 3.01741,-1.98626 1.43648,-1.31066 4.6457,-3.15096 7.37963,-4.23178 3.13572,-1.23967 6.26311,-1.88334 10.3298,-2.12606 3.57235,-0.21322 3.4574,-0.28076 2.94312,1.72952 -2.17067,8.48482 -4.13356,12.42911 -7.93849,15.95181 -3.39048,3.13899 -7.03989,4.5603 -11.23757,4.37663 -1.10387,-0.0483 -2.03649,2.7e-4 -2.07249,0.10793 -0.21539,0.64406 0.35549,16.69631 0.72271,20.32177 1.01644,10.03489 1.99835,12.25854 8.07534,18.2874 l 3.11079,3.08616 -1.03135,1.90071 c -4.61994,8.51426 -14.47698,18.06045 -27.87629,26.99718 -3.63137,2.42196 -5.7345,3.76213 -6.48229,4.13067 -0.21828,0.10758 -1.23031,0.68697 -2.24896,1.28753 -3.54653,2.09093 -11.96864,6.21625 -12.67085,6.20644 -0.16155,-0.002 -2.61628,-1.16312 -5.454952,-2.57969 z M 108.919,194.5569 c 7.01543,-3.64325 12.70055,-7.38818 20.46225,-13.47897 2.18248,-1.71264 8.17107,-7.51491 9.74706,-9.44379 1.95935,-2.39809 5.14367,-7.23801 5.01535,-7.62295 -0.0533,-0.15975 -1.88818,1.35933 -4.07763,3.37574 -5.16924,4.7607 -5.70638,5.23656 -7.90785,7.00557 -2.66225,2.13927 -7.91589,6.04143 -9.92068,7.36862 -6.30698,4.1753 -15.78031,9.26805 -17.24006,9.26805 -1.12809,0 -9.23666,-4.21429 -14.578816,-7.57709 -3.669633,-2.30997 -9.775744,-6.63452 -12.34706,-8.74459 -2.803911,-2.30095 -6.845891,-5.82203 -9.279896,-8.08398 -1.527968,-1.41996 -2.818317,-2.46119 -2.86744,-2.31385 -0.119527,0.35852 1.012772,2.28362 2.954803,5.02367 1.742411,2.45841 8.157018,9.02197 11.260452,11.52194 2.612835,2.10477 8.670404,6.51677 10.699443,7.79288 5.410574,3.40285 13.241854,7.6576 14.111324,7.6667 0.31466,0.003 2.1006,-0.78779 3.96875,-1.75795 z m -9.524642,-20.6595 c -0.09054,-1.41883 -0.245049,-10.41041 -0.343345,-19.98128 -0.178721,-17.40159 -0.178721,-17.40159 -0.865387,-17.56089 -0.377666,-0.0876 -1.698697,-0.49552 -2.935624,-0.90646 -1.236927,-0.41093 -4.68974,-1.52889 -7.672917,-2.48435 -2.983177,-0.95547 -6.108568,-2.00166 -6.945312,-2.32488 l -1.521355,-0.58767 v -3.51344 -3.51343 l 1.12448,0.17137 c 2.491774,0.37975 15.761876,3.12295 17.264062,3.56883 2.65881,0.7892 4.86932,1.64123 6.05583,2.33419 l 1.29102,0.75399 2.41199,-1.15652 c 1.3266,-0.63609 3.12637,-1.3503 3.99949,-1.58713 2.51154,-0.68123 16.27954,-3.58585 18.58698,-3.92127 l 1.12448,-0.16346 v 3.575 c 0,2.68274 -0.0825,3.57541 -0.33073,3.57663 -0.1819,9e-4 -0.64333,0.16474 -1.02539,0.3641 -0.73941,0.38581 -9.81009,3.42948 -15.31263,5.13817 l -3.30729,1.02699 -0.0633,3.94445 c -0.16479,10.26894 -0.18146,35.56233 -0.0234,35.56225 0.36194,-1.8e-4 3.86116,-3.61605 4.73698,-4.89488 l 0.90601,-1.32292 0.20539,-12.43541 c 0.11297,-6.83948 0.26502,-12.81078 0.33789,-13.26956 0.11606,-0.73067 0.39095,-0.9686 2.21626,-1.91823 1.14607,-0.59625 2.21817,-1.08409 2.38245,-1.08409 0.21996,0 0.25044,2.82442 0.11563,10.71563 -0.11449,6.70226 -0.0891,10.71562 0.0677,10.71562 0.13792,0 1.03802,-0.74414 2.00024,-1.65365 l 1.74947,-1.65364 0.17731,-4.36563 c 0.0975,-2.40109 0.29505,-5.73484 0.43897,-7.40833 0.14391,-1.67349 0.35854,-4.33126 0.47695,-5.90615 0.11841,-1.57489 0.33511,-2.98327 0.48157,-3.12972 0.14645,-0.14645 1.97734,-0.97162 4.06864,-1.83369 2.0913,-0.86208 3.98096,-1.6689 4.19924,-1.79294 0.45812,-0.26034 0.69743,-4.76409 0.75792,-14.26389 0.0358,-5.62744 0.0358,-5.62744 -0.69178,-5.47098 -0.40018,0.0861 -1.85869,0.43928 -3.24114,0.78495 -8.89411,2.22392 -13.74881,3.03107 -22.38003,3.72093 l -2.1394,0.171 -0.17528,-8.96007 c -0.0964,-4.92804 -0.17753,-11.043659 -0.18029,-13.590273 -0.003,-3.023536 -0.13853,-5.260352 -0.38977,-6.446194 -0.41589,-1.96298 -1.57176,-4.229951 -2.0736,-4.066893 -0.48356,0.157117 -1.43447,2.036966 -1.90999,3.775821 -0.36326,1.328382 -0.45454,3.763927 -0.57727,15.402369 -0.13544,12.84465 -0.17805,13.82448 -0.60113,13.82448 -0.9258,0 -8.696406,-0.81495 -11.641992,-1.22097 -1.673489,-0.23067 -5.54302,-1.01167 -8.598958,-1.73555 -3.055937,-0.72388 -6.062266,-1.41098 -6.680729,-1.5269 l -1.124479,-0.21076 0.03092,8.23407 c 0.01701,4.52874 0.106306,8.9923 0.198438,9.91903 l 0.167512,1.68496 3.042708,1.2533 c 4.097643,1.68783 5.50049,2.34855 5.711526,2.69001 0.09746,0.15769 0.273762,1.49375 0.391789,2.96903 0.118027,1.47528 0.331932,3.99201 0.475345,5.59274 0.143412,1.60073 0.339406,4.93448 0.435541,7.40833 l 0.174791,4.49792 1.753402,1.65364 c 0.964371,0.90951 1.866523,1.65365 2.004783,1.65365 0.157523,0 0.186186,-4.0009 0.07677,-10.71562 -0.09604,-5.8936 -0.09916,-10.71563 -0.0069,-10.71563 0.09222,0 1.150078,0.49841 2.350798,1.10757 l 2.183126,1.10756 0.158319,3.98567 c 0.08707,2.19211 0.234131,8.23881 0.326791,13.43711 0.168059,9.42834 0.17002,9.45357 0.802026,10.31875 0.888585,1.21642 4.878405,5.23292 5.198161,5.23292 0.169354,0 0.205236,-0.9275 0.0998,-2.57968 z M 85.636807,72.054861 c -0.09701,-0.09701 -0.176389,-0.8327 -0.176389,-1.634859 0,-1.315465 0.08675,-1.538141 0.884726,-2.271007 0.664964,-0.610706 1.027052,-1.305448 1.457705,-2.796912 1.112817,-3.853975 1.414862,-4.643806 2.287288,-5.981136 1.036977,-1.589568 2.656544,-3.048298 4.498406,-4.051677 2.360794,-1.286074 2.118855,-1.530571 -3.208584,-3.242503 -4.672143,-1.501358 -4.672143,-1.501358 -5.385522,-0.973934 -1.482343,1.095943 -3.906047,1.178841 -5.859199,0.200401 -0.527755,-0.264381 -1.033771,-0.674096 -1.124479,-0.910478 -0.09071,-0.236382 -0.164924,-1.602043 -0.164924,-3.034802 0,-2.591749 0.0041,-2.608247 0.81015,-3.239055 0.736568,-0.576451 0.802653,-0.752416 0.727604,-1.937406 l -0.08255,-1.303368 -4.497916,-0.181632 c -2.502438,-0.101051 -4.955988,-0.335814 -5.530435,-0.529166 -2.017277,-0.678995 -1.953275,-1.908042 0.132776,-2.549739 0.691718,-0.212782 3.04376,-0.413215 5.794534,-0.493792 4.284473,-0.125503 4.736669,-0.186683 6.05597,-0.819343 1.425763,-0.683712 1.425763,-0.683712 2.778125,0.01196 1.260044,0.648186 1.659413,0.705355 5.85028,0.83745 2.473854,0.07798 4.961818,0.254612 5.528809,0.392527 1.331754,0.323936 1.649889,0.808895 0.925662,1.411061 -1.048477,0.871767 -3.640591,1.409972 -9.298742,1.930714 l -1.785938,0.164366 v 1.790599 1.790599 l 2.976563,0.171514 c 1.637109,0.09433 4.298072,0.172055 5.913251,0.172717 2.847004,0.0012 2.98984,-0.027 4.677072,-0.922374 3.507496,-1.861342 6.941586,-1.854959 10.473746,0.01947 1.64467,0.872784 1.80545,0.904067 4.64039,0.902906 1.61518,-6.62e-4 4.27614,-0.07838 5.91325,-0.172717 l 2.97656,-0.171514 v -1.806617 c 0,-2.096488 0.23326,-1.95187 -3.57187,-2.214494 -3.5699,-0.246389 -7.80521,-1.451573 -7.80521,-2.221019 0,-0.85426 2.83522,-1.329258 8.0089,-1.341767 3.14073,-0.0076 3.4525,-0.05476 4.42652,-0.669628 1.31261,-0.828616 1.7965,-0.828616 3.01753,0 0.92541,0.628003 1.16482,0.661724 4.73328,0.6667 5.86738,0.0082 8.82623,0.621472 8.60252,1.783075 -0.22659,1.17662 -3.69226,1.901053 -9.14344,1.911265 l -2.44739,0.0046 v 1.411474 c 0,1.234751 0.0994,1.500021 0.79375,2.118707 0.77561,0.691072 0.79375,0.764136 0.79375,3.197096 0,1.369423 -0.0742,2.683264 -0.16493,2.919646 -0.30301,0.789626 -2.20616,1.531829 -3.97048,1.548427 -1.33423,0.01255 -1.83465,-0.111283 -2.66187,-0.658707 l -1.01873,-0.674165 -4.67376,1.489762 c -2.57057,0.819369 -4.758,1.573996 -4.86095,1.67695 -0.29826,0.298259 0.41757,0.984455 1.72368,1.652316 3.07725,1.573517 5.10504,4.26402 6.20242,8.229478 0.8459,3.056698 1.38648,4.21325 2.22698,4.764577 0.5423,0.35572 0.59915,0.574672 0.52916,2.03805 l -0.0784,1.639514 -2.55155,0.07539 c -3.22002,0.09514 -3.40157,-0.04352 -3.40157,-2.597903 0,-2.340867 -0.7202,-4.289919 -2.30328,-6.233318 -1.24572,-1.529244 -3.65225,-3.282708 -4.50533,-3.282708 -0.26622,0 -1.1045,0.591802 -1.86285,1.315115 -1.75673,1.675569 -2.68967,2.149209 -4.56898,2.319619 -2.02163,0.183315 -3.99011,-0.690977 -5.427566,-2.410631 -0.68576,-0.820389 -1.228989,-1.224103 -1.647127,-1.224103 -1.462527,0 -4.815542,3.223651 -5.897784,5.670238 -0.326847,0.738892 -0.648259,2.243449 -0.780565,3.653898 -0.138398,1.475383 -0.358628,2.482563 -0.572493,2.618184 -0.412417,0.261531 -5.075553,0.307129 -5.330558,0.05212 z"
       id="path1" /></g></svg>
